<svg xmlns="http://www.w3.org/2000/svg" style="display:none;" aria-hidden="true">
  <defs>
  <symbol id="house" viewBox="0 0 24 24">
    <!-- @license lucide-static v0.400.0 - ISC -->

  <path d="M15 21v-8a1 1 0 0 0-1-1h-4a1 1 0 0 0-1 1v8" />
  <path d="M3 10a2 2 0 0 1 .709-1.528l7-5.999a2 2 0 0 1 2.582 0l7 5.999A2 2 0 0 1 21 10v9a2 2 0 0 1-2 2H5a2 2 0 0 1-2-2z" />
  </symbol>
  <symbol id="user" viewBox="0 0 24 24">
    <!-- @license lucide-static v0.400.0 - ISC -->

  <path d="M19 21v-2a4 4 0 0 0-4-4H9a4 4 0 0 0-4 4v2" />
  <circle cx="12" cy="7" r="4" />
  </symbol>
  <symbol id="users" viewBox="0 0 24 24">
    <!-- @license lucide-static v0.400.0 - ISC -->

  <path d="M16 21v-2a4 4 0 0 0-4-4H6a4 4 0 0 0-4 4v2" />
  <circle cx="9" cy="7" r="4" />
  <path d="M22 21v-2a4 4 0 0 0-3-3.87" />
  <path d="M16 3.13a4 4 0 0 1 0 7.75" />
  </symbol>
  <symbol id="layout-dashboard" viewBox="0 0 24 24">
    <!-- @license lucide-static v0.400.0 - ISC -->

  <rect width="7" height="9" x="3" y="3" rx="1" />
  <rect width="7" height="5" x="14" y="3" rx="1" />
  <rect width="7" height="9" x="14" y="12" rx="1" />
  <rect width="7" height="5" x="3" y="16" rx="1" />
  </symbol>
  <symbol id="database" viewBox="0 0 24 24">
    <!-- @license lucide-static v0.400.0 - ISC -->

  <ellipse cx="12" cy="5" rx="9" ry="3" />
  <path d="M3 5V19A9 3 0 0 0 21 19V5" />
  <path d="M3 12A9 3 0 0 0 21 12" />
  </symbol>
  <symbol id="upload" viewBox="0 0 24 24">
    <!-- @license lucide-static v0.400.0 - ISC -->

  <path d="M21 15v4a2 2 0 0 1-2 2H5a2 2 0 0 1-2-2v-4" />
  <polyline points="17 8 12 3 7 8" />
  <line x1="12" x2="12" y1="3" y2="15" />
  </symbol>
  <symbol id="shield-check" viewBox="0 0 24 24">
    <!-- @license lucide-static v0.400.0 - ISC -->

  <path d="M20 13c0 5-3.5 7.5-7.66 8.95a1 1 0 0 1-.67-.01C7.5 20.5 4 18 4 13V6a1 1 0 0 1 1-1c2 0 4.5-1.2 6.24-2.72a1.17 1.17 0 0 1 1.52 0C14.51 3.81 17 5 19 5a1 1 0 0 1 1 1z" />
  <path d="m9 12 2 2 4-4" />
  </symbol>
  <symbol id="file-spreadsheet" viewBox="0 0 24 24">
    <!-- @license lucide-static v0.400.0 - ISC -->

  <path d="M15 2H6a2 2 0 0 0-2 2v16a2 2 0 0 0 2 2h12a2 2 0 0 0 2-2V7Z" />
  <path d="M14 2v4a2 2 0 0 0 2 2h4" />
  <path d="M8 13h2" />
  <path d="M14 13h2" />
  <path d="M8 17h2" />
  <path d="M14 17h2" />
  </symbol>
  <symbol id="clipboard-plus" viewBox="0 0 24 24">
    <!-- @license lucide-static v0.400.0 - ISC -->

  <rect width="8" height="4" x="8" y="2" rx="1" ry="1" />
  <path d="M16 4h2a2 2 0 0 1 2 2v14a2 2 0 0 1-2 2H6a2 2 0 0 1-2-2V6a2 2 0 0 1 2-2h2" />
  <path d="M9 14h6" />
  <path d="M12 17v-6" />
  </symbol>
  <symbol id="circle-alert" viewBox="0 0 24 24">
    <!-- @license lucide-static v0.400.0 - ISC -->

  <circle cx="12" cy="12" r="10" />
  <line x1="12" x2="12" y1="8" y2="12" />
  <line x1="12" x2="12.01" y1="16" y2="16" />
  </symbol>
  <symbol id="circle-check" viewBox="0 0 24 24">
    <!-- @license lucide-static v0.400.0 - ISC -->

  <circle cx="12" cy="12" r="10" />
  <path d="m9 12 2 2 4-4" />
  </symbol>
  <symbol id="circle-x" viewBox="0 0 24 24">
    <!-- @license lucide-static v0.400.0 - ISC -->

  <circle cx="12" cy="12" r="10" />
  <path d="m15 9-6 6" />
  <path d="m9 9 6 6" />
  </symbol>
  <symbol id="menu" viewBox="0 0 24 24">
    <!-- @license lucide-static v0.400.0 - ISC -->

  <line x1="4" x2="20" y1="12" y2="12" />
  <line x1="4" x2="20" y1="6" y2="6" />
  <line x1="4" x2="20" y1="18" y2="18" />
  </symbol>
  <symbol id="chevron-right" viewBox="0 0 24 24">
    <!-- @license lucide-static v0.400.0 - ISC -->

  <path d="m9 18 6-6-6-6" />
  </symbol>
  <symbol id="activity" viewBox="0 0 24 24">
    <!-- @license lucide-static v0.400.0 - ISC -->

  <path d="M22 12h-2.48a2 2 0 0 0-1.93 1.46l-2.35 8.36a.25.25 0 0 1-.48 0L9.24 2.18a.25.25 0 0 0-.48 0l-2.35 8.36A2 2 0 0 1 4.49 12H2" />
  </symbol>
  <symbol id="lock" viewBox="0 0 24 24">
    <!-- @license lucide-static v0.400.0 - ISC -->

  <rect width="18" height="11" x="3" y="11" rx="2" ry="2" />
  <path d="M7 11V7a5 5 0 0 1 10 0v4" />
  </symbol>
  </defs>
</svg>